<?xml version="1.0" encoding="UTF-8"?>
<!DOCTYPE svg PUBLIC "-//W3C//DTD SVG 1.1//EN" "http://www.w3.org/Graphics/SVG/1.1/DTD/svg11.dtd">
<svg version="1.1" xmlns="http://www.w3.org/2000/svg" xmlns:xlink="http://www.w3.org/1999/xlink" x="0" y="0" width="500" height="500" viewBox="0, 0, 500, 500">
  <g id="Layer_1">
    <path d="M472.405,0 L27.595,0 C12.351,0 0,12.351 0,27.595 L0,472.405 C0,487.645 12.351,500 27.595,500 L267.065,500 L267.065,306.374 L201.906,306.374 L201.906,230.914 L267.065,230.914 L267.065,175.264 C267.065,110.683 306.509,75.517 364.12,75.517 C391.715,75.517 415.435,77.572 422.346,78.49 L422.346,145.981 L382.39,146 C351.057,146 344.991,160.888 344.991,182.735 L344.991,230.914 L419.715,230.914 L409.985,306.374 L344.991,306.374 L344.991,500 L472.405,500 C487.645,500 500,487.645 500,472.405 L500,27.595 C500,12.351 487.645,0 472.405,0" fill="#FFFFFE"/>
  </g>
</svg>
