<!DOCTYPE svg PUBLIC "-//W3C//DTD SVG 1.1//EN" "http://www.w3.org/Graphics/SVG/1.1/DTD/svg11.dtd">
<svg version="1.1" xmlns="http://www.w3.org/2000/svg" xmlns:xlink="http://www.w3.org/1999/xlink" x="0" y="0" width="274" height="274" viewBox="0, 0, 274, 274">
  <g id="Layer_1">
    <path d="M189.279,26.322 C205.411,26.322 219.988,33.134 230.22,44.035 C242.996,41.519 255,36.851 265.837,30.424 C261.649,43.521 252.756,54.513 241.175,61.455 C252.521,60.099 263.331,57.084 273.39,52.623 C265.87,63.871 256.36,73.75 245.402,81.658 C245.51,84.063 245.564,86.482 245.564,88.914 C244.844,157.101 200.839,221.323 134.984,241.417 C120.453,245.851 105.721,247.661 90.604,248.44 L82.701,248.44 C53.274,248.216 24.929,238.686 0.06,223.338 L0.06,223.307 C4.478,223.867 8.932,224.019 13.38,224.084 C39.658,224.084 63.843,215.117 83.039,200.074 C58.495,199.621 37.781,183.405 30.644,161.121 C34.068,161.776 37.582,162.127 41.196,162.127 C46.312,162.127 51.267,161.442 55.974,160.16 C30.314,155.008 10.981,132.338 10.981,105.162 C10.981,104.926 10.981,104.691 10.985,104.457 C18.548,108.658 27.196,111.181 36.391,111.472 C21.341,101.414 11.438,84.246 11.438,64.787 C11.438,54.508 14.204,44.873 19.032,36.589 C46.696,70.523 88.025,92.853 134.641,95.192 C133.685,91.087 133.188,86.806 133.188,82.41 C133.188,51.435 158.302,26.322 189.279,26.322 z" fill="#FFFFFE"/>
  </g>
</svg>
