<?xml version="1.0" encoding="UTF-8"?>
<!DOCTYPE svg PUBLIC "-//W3C//DTD SVG 1.1//EN" "http://www.w3.org/Graphics/SVG/1.1/DTD/svg11.dtd">
<svg version="1.1" xmlns="http://www.w3.org/2000/svg" xmlns:xlink="http://www.w3.org/1999/xlink" x="0" y="0" width="291.6" height="360" viewBox="0, 0, 291.6, 360">
  <g id="bible">
    <path d="M143.853,26.96 L13.858,49.882 L25.266,114.582 M146.291,40.787 L167.208,22.892 L141.415,13.134 z" fill-opacity="0" stroke="#00C97C" stroke-width="8" id="green_arrow"/>
    <path d="M184.184,19.849 L226.288,12.425 L260.43,206.052 M246.604,208.49 L264.499,229.408 L274.257,203.614 z" fill-opacity="0" stroke="#E55C46" stroke-width="8" id="red_arrow"/>
    <path d="M267.541,246.382 L278.95,311.082 L148.955,334.003 M146.517,320.176 L125.599,338.072 L151.393,347.83 z" fill-opacity="0" stroke="#317FB6" stroke-width="8" id="blue_arrow"/>
    <path d="M108.418,341.151 L66.313,348.575 L32.171,154.947 M45.998,152.509 L28.103,131.591 L18.345,157.385 z" fill-opacity="0" stroke="#F9CA73" stroke-width="8" id="yellow_arrow"/>
  </g>
  <g id="cross">
    <path d="M146.74,150.369 L166.745,263.819 L154.872,265.912 L134.868,152.462 L146.74,150.369 z" fill="#00C97C"/>
    <path d="M136.738,93.644 L146.74,150.369 L134.868,152.462 L124.866,95.737 L136.738,93.644 z" fill="#317FB6"/>
    <path d="M145.68,144.357 L197.802,135.166 L199.896,147.039 L147.774,156.23 L140.743,151.444 L145.68,144.357 z" fill="#F9CA73"/>
    <path d="M81.657,155.646 L133.808,146.45 L140.743,151.444 L135.901,158.323 L83.75,167.519 L81.657,155.646 z" fill="#E55C46"/>
  </g>
</svg>
