<?xml version="1.0" encoding="UTF-8"?>
<!DOCTYPE svg PUBLIC "-//W3C//DTD SVG 1.1//EN" "http://www.w3.org/Graphics/SVG/1.1/DTD/svg11.dtd">
<svg version="1.1" xmlns="http://www.w3.org/2000/svg" xmlns:xlink="http://www.w3.org/1999/xlink" x="0" y="0" viewBox="0, 0, 324, 360">
  <g id="Layer_1">
    <path d="M141.478,33.977 L10.677,81.584 L31.551,138.933 M145.269,44.12 L159.209,27.507 L137.852,23.741 z" fill-opacity="0" stroke="#00C982" stroke-width="4"/>
    <path d="M169.775,23.677 L214.355,7.452 L281.986,193.268 M272.29,197.283 L288.903,211.223 L292.669,189.866 z" fill-opacity="0" stroke="#FA4354" stroke-width="4"/>
    <path d="M41.753,166.963 L109.674,353.574 L154.775,337.159 M52.323,162.556 L35.711,148.617 L31.945,169.974 z" fill-opacity="0" stroke="#FDB840" stroke-width="4"/>
    <path d="M182.551,327.049 L313.282,279.253 L292.207,221.35 M178.737,317.049 L164.798,333.662 L186.155,337.428 z" fill-opacity="0" stroke="#006CC3" stroke-width="4"/>
  </g>
  <g id="Layer_2">
    <path d="M155.472,150.404 L194.872,258.657 L188.226,261.076 L148.825,152.823 L155.472,150.404 z" fill="#2FC981"/>
    <path d="M135.769,96.271 L155.469,150.397 L148.822,152.816 L129.122,98.69 L135.769,96.271 z" fill="#136CC3"/>
    <path d="M154.207,147.028 L204.999,128.541 L207.413,135.172 L156.62,153.659 L152.105,151.627 L154.207,147.028 z" fill="#FCB840"/>
    <path d="M96.728,167.949 L147.571,149.444 L152.086,151.634 L149.985,156.074 L99.141,174.579 L96.728,167.949 z" fill="#FC4354"/>
  </g>
</svg>
